<?xml version="1.0" encoding="iso-8859-1"?>
<!-- Generator: Adobe Illustrator 26.2.1, SVG Export Plug-In . SVG Version: 6.00 Build 0)  -->
<svg version="1.1" xmlns="http://www.w3.org/2000/svg" xmlns:xlink="http://www.w3.org/1999/xlink" x="0px" y="0px"
	 viewBox="0 0 156.935 60" style="enable-background:new 0 0 156.935 60;" xml:space="preserve">

<g id="CIS">
	<g>
		<g id="Group_1741" transform="translate(11479.486 -17682.236)">
			<rect id="Rectangle_388" x="-11461.295" y="17706.412" width="2.474" height="12.944"/>
			<path id="Path_1511" d="M-11456.537,17719.352v-9.324h2.044v1.004c0.814-0.678,1.815-1.09,2.87-1.182
				c1.864,0,2.76,1.219,2.76,3.119v6.383h-2.225v-6.057c0-1.254-0.395-1.648-1.146-1.648c-0.802,0.02-1.558,0.379-2.079,0.988v6.723
				L-11456.537,17719.352z"/>
			<path id="Path_1512" d="M-11446.555,17710.029v-3.09h2.225v3.09h1.829v1.791h-1.829v5.271c0,0.502,0.247,0.646,0.808,0.646
				c0.346-0.023,0.688-0.084,1.021-0.18v1.828c-0.581,0.084-1.168,0.133-1.756,0.145c-1.65,0-2.295-0.824-2.295-2.152v-5.562h-1.294
				v-1.787H-11446.555z"/>
			<path id="Path_1513" d="M-11439.727,17715.049c0.036,1.936,0.896,2.689,1.936,2.689c0.837,0.006,1.62-0.414,2.08-1.113
				l1.614,1.004c-0.853,1.307-2.355,2.035-3.909,1.9c-2.421,0-3.943-1.883-3.943-4.84c0-2.959,1.523-4.842,4.051-4.842
				c2.438-0.018,3.802,2.045,3.802,4.285v0.914L-11439.727,17715.049z M-11436.142,17713.543c-0.037-1.291-0.717-2.045-1.794-2.045
				c-1.076,0-1.756,0.754-1.792,2.045H-11436.142z"/>
			<path id="Path_1514" d="M-11424.896,17711.354c-0.488-0.047-0.981,0.027-1.435,0.217c0.341,0.48,0.518,1.059,0.503,1.648
				c0,1.758-1.184,3.012-3.515,3.012c-0.968,0-1.739,0.037-1.739,0.576c0,1.506,6.132-0.539,6.132,3.189
				c0,1.328-1.345,2.762-4.326,2.762c-2.509,0-4.159-0.754-4.159-2.225c-0.042-0.908,0.659-1.678,1.566-1.719
				c0.04-0.002,0.08-0.002,0.12-0.002v-0.035c-0.431-0.268-1.38-0.502-1.38-1.506c0-0.896,1.04-1.578,1.452-1.703
				c-0.832-0.553-1.347-1.473-1.38-2.471c0.041-1.844,1.567-3.303,3.41-3.262c0.088,0.002,0.176,0.006,0.264,0.016
				c0.836,0.01,1.644,0.301,2.295,0.824c0.54-0.631,1.366-0.943,2.188-0.824L-11424.896,17711.354z M-11431.386,17720.254
				c0,0.717,0.609,1.039,2.472,1.039c1.435,0,1.919-0.717,1.919-1.039c0-0.432-0.663-1.078-2.815-1.078
				c-1.218,0-1.577,0.684-1.577,1.078 M-11429.401,17711.498c-0.852-0.01-1.551,0.672-1.561,1.525
				c-0.011,0.852,0.672,1.551,1.523,1.561c0.853,0.01,1.551-0.672,1.562-1.523c0-0.008,0-0.014,0-0.02
				C-11427.874,17712.195-11428.556,17711.506-11429.401,17711.498"/>
			<path id="Path_1515" d="M-11423.912,17719.352v-9.324h2.044v1.596h0.036c0.411-1.084,1.458-1.793,2.617-1.773v2.348
				c-0.13-0.016-0.262-0.023-0.394-0.02c-0.906,0.113-1.691,0.682-2.079,1.508v5.666H-11423.912z"/>
			<path id="Path_1516" d="M-11413.229,17719.35l-0.145-0.807c-0.836,0.637-1.855,0.982-2.904,0.99
				c-1.314,0.08-2.444-0.92-2.525-2.232c-0.005-0.08-0.006-0.16-0.003-0.24c0-2.115,1.722-3.227,5.344-3.656v-0.795
				c0-0.717-0.574-1.111-1.36-1.111c-0.835-0.002-1.609,0.434-2.044,1.146l-1.434-1.094c0.811-1.104,2.11-1.738,3.479-1.703
				c2.509,0.053,3.584,0.969,3.584,3.766v4.391c-0.016,0.455,0.045,0.91,0.179,1.344L-11413.229,17719.35z M-11413.456,17714.885
				c-1.483,0.285-3.12,0.592-3.12,1.898c-0.047,0.557,0.366,1.047,0.923,1.094c0.051,0.004,0.103,0.004,0.154,0
				c0.766-0.115,1.478-0.461,2.044-0.988L-11413.456,17714.885z"/>
			<path id="Path_1517" d="M-11409.012,17710.029v-3.09h2.225v3.09h1.828v1.791h-1.83v5.271c0,0.502,0.248,0.646,0.808,0.646
				c0.346-0.023,0.688-0.084,1.021-0.18v1.828c-0.582,0.084-1.168,0.133-1.756,0.145c-1.65,0-2.295-0.824-2.295-2.152v-5.562h-1.296
				v-1.787H-11409.012z"/>
			<path id="Path_1518" d="M-11403.545,17706.229h2.225v2.08h-2.225V17706.229z M-11401.32,17719.354h-2.225v-9.324h2.225V17719.354
				z"/>
			<path id="Path_1519" d="M-11400.188,17710.027h2.225l1.542,6.311h0.036l1.578-6.311h2.225l-2.676,9.326h-2.325
				L-11400.188,17710.027z"/>
			<path id="Path_1520" d="M-11390.163,17715.049c0.036,1.936,0.896,2.689,1.936,2.689c0.837,0.006,1.62-0.414,2.08-1.113
				l1.614,1.004c-0.854,1.307-2.355,2.035-3.909,1.9c-2.42,0-3.944-1.883-3.944-4.84c0-2.959,1.524-4.842,4.052-4.842
				c2.438-0.018,3.802,2.045,3.802,4.285v0.914L-11390.163,17715.049z M-11386.579,17713.543c-0.037-1.291-0.717-2.045-1.793-2.045
				s-1.756,0.754-1.792,2.045H-11386.579z"/>
			<path id="Path_1521" d="M-11370.479,17709.852c-0.357-1.037-1.349-1.721-2.444-1.686c-1.139,0-1.954,0.43-1.954,1.436
				c0,2.225,7.056,1.756,7.056,5.951c0,2.654-1.765,3.98-4.798,3.98c-2.164,0.084-4.174-1.119-5.121-3.066l2.161-0.896
				c0.467,1.236,1.658,2.047,2.979,2.025c1.31,0,2.314-0.465,2.314-1.721c0-2.545-7.055-2.045-7.055-6.023
				c0-2.312,2.048-3.621,4.419-3.621c2.06-0.115,3.979,1.045,4.835,2.92L-11370.479,17709.852z"/>
			<path id="Path_1522" d="M-11366.532,17710.029v-3.09h2.225v3.09h1.829v1.791h-1.829v5.271c0,0.502,0.247,0.646,0.808,0.646
				c0.346-0.023,0.688-0.084,1.021-0.18v1.828c-0.582,0.084-1.168,0.133-1.756,0.145c-1.65,0-2.295-0.824-2.295-2.152v-5.562h-1.292
				v-1.787H-11366.532z"/>
			<path id="Path_1523" d="M-11353.663,17710.027v9.326h-2.044v-1.004c-0.813,0.678-1.814,1.09-2.869,1.184
				c-1.863,0-2.76-1.219-2.76-3.121v-6.385h2.225v6.055c0,1.256,0.395,1.65,1.147,1.65c0.802-0.021,1.557-0.381,2.08-0.99v-6.723
				L-11353.663,17710.027z"/>
			<path id="Path_1524" d="M-11343.992,17719.352h-1.883l-0.107-1.004c-0.637,0.736-1.556,1.166-2.528,1.184
				c-2.472,0-3.73-2.188-3.73-5.092c0-2.295,1.327-4.59,3.73-4.59c0.861,0.031,1.675,0.404,2.259,1.039h0.036v-4.48h2.225
				L-11343.992,17719.352z M-11346.217,17712.43c-0.451-0.475-1.068-0.756-1.722-0.787c-1.328,0-2.08,1.076-2.08,3.049
				s0.752,3.047,2.08,3.047c0.664-0.018,1.29-0.318,1.722-0.824V17712.43z"/>
			<path id="Path_1525" d="M-11341.969,17706.229h2.225v2.08h-2.225V17706.229z M-11339.744,17719.354h-2.225v-9.324h2.225
				V17719.354z"/>
			<path id="Path_1526" d="M-11336.051,17715.049c0.036,1.936,0.896,2.689,1.936,2.689c0.837,0.006,1.62-0.414,2.08-1.113
				l1.614,1.004c-0.853,1.307-2.355,2.037-3.909,1.9c-2.42,0-3.944-1.883-3.944-4.84c0-2.959,1.524-4.842,4.053-4.842
				c2.438-0.018,3.801,2.045,3.801,4.285v0.914L-11336.051,17715.049z M-11332.467,17713.543c-0.035-1.291-0.717-2.045-1.792-2.045
				s-1.756,0.754-1.792,2.045H-11332.467z"/>
			<path id="Path_1527" d="M-11324.218,17712.484c-0.421-0.553-1.049-0.91-1.739-0.988c-0.865,0-1.255,0.359-1.255,0.914
				c0,1.596,4.661,0.916,4.661,4.326c0,1.938-1.47,2.797-3.424,2.797c-1.424,0.027-2.761-0.684-3.532-1.881l1.483-1.113
				c0.459,0.777,1.27,1.279,2.169,1.344c0.788,0,1.326-0.43,1.326-1.057c0-1.596-4.661-1.021-4.661-4.268
				c0.05-1.551,1.348-2.768,2.899-2.719c0.063,0.002,0.127,0.006,0.19,0.014c1.248-0.031,2.446,0.486,3.28,1.416
				L-11324.218,17712.484z"/>
		</g>
		<g id="Group_1740" transform="translate(11479.881 -17682.525)">
			<path id="Path_1528" d="M-11456.997,17696.221c-0.16-0.684-0.771-1.168-1.475-1.17c-1.035,0-1.666,0.969-1.666,2.871
				c-0.021,1.902,0.54,2.871,1.711,2.871c0.697,0,1.126-0.246,1.587-1.205l1.44,0.383c-0.39,1.328-1.646,2.211-3.027,2.127
				c-2.07,0-3.265-1.52-3.265-4.176s1.194-4.172,3.265-4.172c1.361-0.141,2.6,0.793,2.843,2.139L-11456.997,17696.221z"/>
			<path id="Path_1529" d="M-11452.312,17696.023c1.587,0,2.543,1.182,2.543,3.039s-0.956,3.037-2.543,3.037
				s-2.544-1.182-2.544-3.037S-11453.899,17696.023-11452.312,17696.023 M-11452.312,17697.148c-0.776,0-1.148,0.609-1.148,1.916
				s0.371,1.912,1.148,1.912s1.148-0.609,1.148-1.912C-11451.164,17697.76-11451.535,17697.148-11452.312,17697.148"/>
			<rect id="Rectangle_389" x="-11448.797" y="17693.863" width="1.395" height="8.125"/>
			<rect id="Rectangle_390" x="-11446.03" y="17693.863" width="1.395" height="8.125"/>
			<path id="Path_1530" d="M-11442.282,17699.287c0.025,1.215,0.564,1.688,1.217,1.688c0.524,0.004,1.016-0.26,1.305-0.697
				l1.014,0.631c-0.535,0.818-1.479,1.277-2.453,1.191c-1.52,0-2.472-1.182-2.472-3.037s0.957-3.037,2.544-3.037
				c1.356,0.031,2.429,1.158,2.396,2.514c-0.002,0.059-0.005,0.115-0.011,0.174v0.574H-11442.282z M-11440.03,17698.342
				c-0.021-0.811-0.449-1.283-1.126-1.283c-0.676,0-1.101,0.473-1.126,1.283H-11440.03z"/>
			<path id="Path_1531" d="M-11432.933,17696.965c-0.307-0.029-0.616,0.018-0.9,0.137c0.215,0.301,0.325,0.664,0.314,1.035
				c0,1.104-0.741,1.891-2.204,1.891c-0.608,0-1.093,0.023-1.093,0.359c0,0.945,3.849-0.336,3.849,2.004
				c0,0.834-0.843,1.73-2.712,1.73c-1.576,0-2.611-0.473-2.611-1.395c-0.028-0.57,0.41-1.055,0.979-1.082
				c0.026-0.002,0.053-0.002,0.079-0.002v-0.018c-0.269-0.17-0.864-0.316-0.864-0.947c0-0.562,0.652-0.988,0.912-1.068
				c-0.523-0.348-0.846-0.926-0.865-1.555c0.03-1.16,0.996-2.074,2.155-2.045c0.05,0.002,0.099,0.006,0.148,0.01
				c0.523,0.008,1.03,0.189,1.439,0.518c0.339-0.396,0.857-0.592,1.373-0.518V17696.965z M-11437.011,17702.549
				c0,0.449,0.382,0.652,1.554,0.652c0.9,0,1.203-0.451,1.203-0.652c0-0.27-0.415-0.676-1.766-0.676
				c-0.767,0-0.989,0.428-0.989,0.676 M-11435.76,17697.055c-0.535-0.006-0.973,0.424-0.979,0.957
				c-0.006,0.535,0.423,0.973,0.957,0.979s0.973-0.422,0.979-0.955c0-0.004,0-0.008,0-0.012
				C-11434.802,17697.494-11435.229,17697.061-11435.76,17697.055"/>
			<path id="Path_1532" d="M-11431.286,17699.287c0.022,1.215,0.562,1.688,1.215,1.688c0.525,0.004,1.017-0.26,1.306-0.697
				l1.014,0.631c-0.536,0.818-1.479,1.277-2.454,1.191c-1.519,0-2.472-1.182-2.472-3.037s0.958-3.037,2.544-3.037
				c1.355,0.031,2.429,1.156,2.396,2.512c-0.001,0.059-0.005,0.117-0.01,0.176v0.574H-11431.286z M-11429.035,17698.342
				c-0.022-0.811-0.45-1.283-1.126-1.283s-1.104,0.473-1.126,1.283H-11429.035z"/>
			<path id="Path_1533" d="M-11421.075,17696.023c1.587,0,2.543,1.182,2.543,3.039s-0.956,3.037-2.543,3.037
				s-2.544-1.182-2.544-3.037S-11422.662,17696.023-11421.075,17696.023 M-11421.075,17697.148c-0.776,0-1.148,0.609-1.148,1.916
				s0.371,1.912,1.148,1.912s1.148-0.609,1.148-1.912C-11419.927,17697.76-11420.298,17697.148-11421.075,17697.148"/>
			<path id="Path_1534" d="M-11416.02,17697.262v4.727h-1.396v-4.727h-0.811v-1.125h0.799v-0.721c0-1.262,0.506-1.666,1.654-1.666
				h0.929v1.125h-0.382c-0.586,0-0.789,0.18-0.789,0.629v0.631h1.171v1.127H-11416.02z"/>
		</g>
	</g>
</g>
<g id="Black_Separator">
	<rect id="Separator_00000094619533055524595370000010840460839872246460_" y="11.248" width="1" height="48.752"/>
</g>
</svg>
